<svg width="24" height="20" viewBox="0 0 24 20" fill="none" xmlns="http://www.w3.org/2000/svg">
  <path d="M11.4516 0.419556C11.748 0.566762 12.0812 0.9895 12.305 1.23946C14.2244 3.38368 15.2313 6.11467 15.0532 8.98942C14.8808 11.7713 13.507 14.2415 11.4449 16.0672C11.0544 15.8002 10.6971 15.4203 10.3847 15.0671C8.63294 13.0859 7.67276 10.3024 7.84004 7.66155C8.01251 4.93884 9.4043 2.21446 11.4516 0.419556Z" fill="#0D0B0A" />
  <path d="M19.6202 4.31323C19.6259 4.32287 19.6324 4.33211 19.6373 4.34217C19.7465 4.56462 19.7781 4.91757 19.8058 5.16447C19.9501 6.44847 19.8307 7.73584 19.3792 8.95156C18.2509 11.9888 15.6431 14.2245 12.7598 15.55C12.7258 15.5496 12.7486 15.5523 12.6968 15.5221C12.873 15.2339 13.1187 14.9762 13.322 14.7054C13.6329 14.2826 13.9147 13.8392 14.1652 13.3785C15.0485 11.7532 15.4709 9.96583 15.4695 8.12252C15.4692 7.599 15.4572 7.07606 15.3057 6.5708C15.5761 6.2707 15.9074 6.01777 16.229 5.77438C17.2655 4.98999 18.3099 4.44411 19.6202 4.31323Z" fill="#0D0B0A" />
  <path d="M3.24595 4.32593C3.40155 4.33192 3.55855 4.35212 3.71245 4.37553C4.89686 4.55573 5.93319 5.18646 6.85844 5.91641C7.11668 6.12014 7.39921 6.33257 7.59366 6.60029C7.10171 9.12775 7.75417 11.7779 9.06107 13.9638C9.26979 14.3112 9.49526 14.6481 9.73671 14.9739C9.852 15.129 9.98922 15.2699 10.0926 15.4327L10.056 15.4803C7.90114 14.5588 5.88255 12.9281 4.58396 10.979C3.22162 8.93404 2.77114 6.73125 3.24595 4.32593Z" fill="#0D0B0A" />
  <path d="M21.7278 9.96616C22.0714 9.92515 22.8414 9.88182 23.1294 10.0652C23.1439 10.1085 23.1482 10.1128 23.1497 10.1654C23.1555 10.367 23.0238 10.6687 22.9555 10.8567C22.4985 12.1543 21.7161 13.313 20.6833 14.2218C18.6614 16.0095 16.0406 16.651 13.3938 16.4807C12.8938 16.4285 12.3785 16.3937 11.8979 16.2405C14.1156 15.5584 16.225 14.1649 17.7534 12.4247C18.1291 11.9969 18.4045 11.5001 18.7701 11.0699C19.4639 10.2532 20.7219 10.0373 21.7278 9.96616Z" fill="#0D0B0A" />
  <path d="M0.54306 10.0338C1.57648 9.91196 2.97875 10.0822 3.82995 10.7256C4.33602 11.1082 4.641 11.8185 5.05925 12.3021C6.36719 13.8167 8.00534 15.011 9.84752 15.7928C10.2398 15.9607 10.6436 16.136 11.0584 16.2381L10.2293 16.3766C7.8148 16.7241 5.31281 16.2927 3.24693 14.9495C1.8401 14.0345 0.849543 12.7799 0.26718 11.215C0.181681 10.9855 0.0537019 10.7364 0.00998501 10.4973C-0.0155488 10.3576 0.00692865 10.2656 0.0885206 10.1472C0.218395 10.0516 0.387227 10.0528 0.54306 10.0338Z" fill="#0D0B0A" />
  <path d="M11.5762 16.4019C11.9962 16.5512 12.4189 16.6707 12.8595 16.7423C13.6186 16.8653 14.5006 16.8293 15.1826 17.2247C15.6862 17.5168 16.202 18.2008 16.3443 18.768C16.3704 18.8721 16.3629 18.8806 16.3095 18.9668C15.7824 19.1568 15.2705 19.1115 14.746 18.9398C13.4825 18.5266 12.1946 17.6058 11.5762 16.4019Z" fill="#0D0B0A" />
  <path d="M11.3384 16.4049C11.365 16.4026 11.3906 16.4165 11.4164 16.4239C11.4151 16.4359 11.4153 16.4482 11.4124 16.4602C11.3476 16.7291 10.3074 17.8255 10.0672 18.0155C9.23727 18.6708 8.00496 19.1912 6.93424 19.0631C6.90561 19.0569 6.86584 19.0492 6.83977 19.0372C6.78212 19.0105 6.7456 18.9892 6.7304 18.927C6.68981 18.7594 6.78502 18.5652 6.86116 18.4198C7.10644 17.9509 7.49053 17.4007 7.97172 17.1473C8.56484 16.8355 9.44065 16.8367 10.0998 16.7195C10.5221 16.6444 10.929 16.5299 11.3384 16.4049Z" fill="#0D0B0A" />
</svg>