<?xml version='1.0' encoding='utf-8'?>
<svg xmlns="http://www.w3.org/2000/svg" aria-hidden="true" style="position: absolute; width: 0; height: 0; overflow: hidden;" version="1.1">
<defs>
<symbol id="icon-instagram" viewBox="0 0 33 32">
<path d="M16.887 6.161c3.206 0 3.585 0.014 4.846 0.071 1.172 0.052 1.804 0.248 2.226 0.412 0.558 0.216 0.961 0.478 1.378 0.895 0.422 0.422 0.679 0.82 0.9 1.378 0.164 0.422 0.361 1.059 0.413 2.226 0.056 1.266 0.070 1.645 0.070 4.847s-0.014 3.585-0.070 4.847c-0.052 1.172-0.248 1.804-0.413 2.227-0.216 0.558-0.478 0.961-0.895 1.377-0.422 0.422-0.82 0.679-1.378 0.9-0.422 0.164-1.060 0.361-2.226 0.412-1.266 0.056-1.645 0.071-4.847 0.071s-3.585-0.014-4.847-0.071c-1.172-0.052-1.804-0.248-2.226-0.412-0.558-0.216-0.961-0.478-1.378-0.895-0.422-0.422-0.679-0.82-0.9-1.378-0.164-0.422-0.361-1.060-0.412-2.226-0.056-1.266-0.071-1.645-0.071-4.847s0.014-3.585 0.071-4.847c0.052-1.172 0.248-1.804 0.412-2.226 0.216-0.558 0.478-0.961 0.895-1.378 0.422-0.422 0.82-0.679 1.378-0.9 0.422-0.164 1.059-0.361 2.226-0.412 1.261-0.056 1.641-0.071 4.847-0.071h0.001zM16.887 4.001c-3.258 0-3.665 0.014-4.945 0.071-1.275 0.056-2.151 0.262-2.91 0.558-0.792 0.309-1.462 0.717-2.127 1.387-0.67 0.666-1.078 1.336-1.387 2.123-0.295 0.764-0.502 1.636-0.558 2.91-0.056 1.285-0.071 1.692-0.071 4.949s0.014 3.665 0.071 4.945c0.056 1.275 0.262 2.151 0.558 2.91 0.31 0.792 0.717 1.462 1.387 2.127 0.665 0.665 1.336 1.078 2.123 1.383 0.764 0.295 1.636 0.502 2.91 0.558 1.279 0.056 1.687 0.071 4.945 0.071s3.666-0.014 4.945-0.071c1.275-0.056 2.151-0.262 2.91-0.558 0.787-0.305 1.458-0.717 2.123-1.383s1.078-1.336 1.383-2.123c0.295-0.764 0.502-1.635 0.558-2.91 0.056-1.279 0.071-1.687 0.071-4.945s-0.014-3.665-0.071-4.945c-0.056-1.275-0.262-2.151-0.558-2.91-0.295-0.797-0.703-1.467-1.373-2.133-0.665-0.665-1.336-1.078-2.123-1.383-0.764-0.295-1.635-0.502-2.91-0.558-1.284-0.061-1.692-0.075-4.949-0.075l-0.001 0.001z"></path>
<path d="M16.885 9.836c-3.402 0-6.163 2.76-6.163 6.163s2.76 6.163 6.163 6.163c3.403 0 6.163-2.76 6.163-6.163s-2.76-6.163-6.163-6.163zM16.885 19.997c-2.208 0-3.998-1.79-3.998-3.998s1.79-3.998 3.998-3.998c2.208 0 3.998 1.79 3.998 3.998s-1.79 3.998-3.998 3.998z"></path>
<path d="M24.73 9.592c0 0.795-0.644 1.439-1.439 1.439s-1.439-0.644-1.439-1.439 0.644-1.439 1.439-1.439c0.795 0 1.439 0.644 1.439 1.439z"></path>
</symbol>
<symbol id="icon-facebook" viewBox="0 0 32 32">
<path d="M28.8 16.507c0-7.113-5.731-12.878-12.8-12.878s-12.8 5.766-12.8 12.878c0 6.428 4.681 11.756 10.8 12.722v-8.999h-3.25v-3.723h3.25v-2.837c0-3.228 1.911-5.010 4.835-5.010 1.401 0 2.865 0.252 2.865 0.252v3.169h-1.614c-1.59 0-2.086 0.993-2.086 2.011v2.416h3.55l-0.567 3.723h-2.983v8.999c6.119-0.966 10.8-6.294 10.8-12.722z" />
</symbol>
<symbol id="icon-check" viewBox="0 0 44 32">
<path stroke-linejoin="miter" stroke-linecap="butt" stroke-miterlimit="4" stroke-width="2.4615" d="M40.115 1.233l0.007 0.005 1.714 1.738-0.005 0.002-26.096 26.096-13.272-13.279 1.728-1.726 0.002 0.005 11.529 11.529 0.87-0.873 23.495-23.493c0.004-0.004 0.006-0.004 0.007-0.005s0.005-0.002 0.010-0.002c0.004 0 0.007 0.002 0.010 0.002z" />
</symbol>
<symbol id="icon-close" viewBox="0 0 32 32">
<path stroke-linejoin="miter" stroke-linecap="butt" stroke-miterlimit="4" stroke-width="2" d="M27.911 2.962l0.109 0.074 0.943 0.943c0.129 0.13 0.13 0.341 0 0.471l-11.551 11.549 11.551 11.551c0.129 0.13 0.13 0.341 0 0.471l-0.943 0.943c-0.13 0.129-0.34 0.129-0.471 0l-11.551-11.551-11.549 11.551c-0.13 0.13-0.341 0.13-0.471 0l-0.943-0.943c-0.097-0.097-0.123-0.241-0.074-0.361l0.074-0.109 11.549-11.551-11.549-11.549c-0.13-0.13-0.13-0.34 0-0.471l0.943-0.943c0.098-0.098 0.241-0.122 0.361-0.072l0.109 0.072 11.549 11.549 11.551-11.549c0.098-0.098 0.241-0.123 0.361-0.074z" />
</symbol>
<symbol id="icon-linkedIn" viewBox="0 0 33 32">
<path d="M26.639 4h-19.5c-1.237 0-2.25 1.013-2.25 2.25v19.5c0 1.237 1.013 2.25 2.25 2.25h19.5c1.237 0 2.25-1.013 2.25-2.25v-19.5c0-1.237-1.013-2.25-2.25-2.25zM13.889 23.5h-3v-10.5h3v10.5zM12.389 11.5c-0.829 0-1.5-0.671-1.5-1.5s0.671-1.5 1.5-1.5c0.829 0 1.5 0.671 1.5 1.5s-0.671 1.5-1.5 1.5zM24.389 23.5h-3v-6c0-0.829-0.671-1.5-1.5-1.5s-1.5 0.671-1.5 1.5v6h-3v-10.5h3v1.861c0.619-0.848 1.565-1.861 2.625-1.861 1.866 0 3.375 1.679 3.375 3.75v6.75z" />
</symbol>
<symbol id="icon-logo" viewBox="0 0 75 32">
<path d="M13.131 2.542c0.332 0.165 0.705 0.638 0.955 0.918 2.148 2.4 3.275 5.457 3.076 8.674-0.193 3.114-1.731 5.879-4.039 7.922-0.437-0.299-0.837-0.724-1.187-1.119-1.961-2.218-3.035-5.333-2.848-8.289 0.193-3.047 1.751-6.097 4.042-8.106z" />
<path d="M22.274 6.9c0.006 0.011 0.014 0.021 0.019 0.032 0.122 0.249 0.158 0.644 0.189 0.92 0.162 1.437 0.028 2.878-0.478 4.239-1.263 3.4-4.182 5.902-7.409 7.385-0.038-0-0.013 0.003-0.071-0.031 0.197-0.323 0.472-0.611 0.7-0.914 0.348-0.473 0.663-0.97 0.944-1.485 0.989-1.819 1.461-3.82 1.46-5.883-0-0.586-0.014-1.171-0.183-1.737 0.303-0.336 0.674-0.619 1.034-0.891 1.16-0.878 2.329-1.489 3.796-1.635z" />
<path d="M3.947 6.914c0.174 0.007 0.35 0.029 0.522 0.056 1.326 0.202 2.486 0.908 3.521 1.725 0.289 0.228 0.605 0.466 0.823 0.765-0.551 2.829 0.18 5.795 1.642 8.242 0.234 0.389 0.486 0.766 0.756 1.131 0.129 0.174 0.283 0.331 0.398 0.514l-0.041 0.053c-2.412-1.031-4.671-2.857-6.125-5.038-1.525-2.289-2.029-4.754-1.498-7.447z" />
<path d="M24.633 13.227c0.385-0.046 1.246-0.094 1.569 0.111 0.016 0.048 0.021 0.053 0.023 0.112 0.006 0.226-0.141 0.563-0.217 0.774-0.511 1.452-1.387 2.749-2.543 3.766-2.263 2.001-5.196 2.719-8.159 2.528-0.56-0.058-1.136-0.097-1.674-0.269 2.482-0.763 4.843-2.323 6.554-4.271 0.421-0.479 0.729-1.035 1.138-1.516 0.777-0.914 2.185-1.156 3.311-1.235z" />
<path d="M0.922 13.303c1.157-0.136 2.726 0.054 3.679 0.774 0.566 0.428 0.908 1.223 1.376 1.765 1.464 1.695 3.297 3.032 5.359 3.907 0.439 0.188 0.891 0.384 1.355 0.498l-0.928 0.155c-2.702 0.389-5.503-0.094-7.815-1.597-1.575-1.024-2.683-2.428-3.335-4.18-0.096-0.257-0.239-0.536-0.288-0.803-0.029-0.156-0.003-0.259 0.088-0.392 0.145-0.107 0.334-0.106 0.509-0.127z" />
<path d="M48.117 10.967c0.901-0.007 1.883-0.088 2.773 0.042 0.572 0.083 1.154 0.289 1.502 0.779 0.256 0.361 0.34 0.868 0.26 1.299-0.097 0.528-0.431 0.834-0.855 1.118 0.102 0.043 0.201 0.090 0.299 0.142 0.374 0.203 0.64 0.553 0.749 0.963 0.15 0.56 0.030 1.137-0.249 1.634-0.063 0.095-0.136 0.179-0.219 0.257-0.855 0.811-2.73 0.654-3.834 0.644-0.213-0.002-0.492 0.016-0.65-0.145-0.038-0.081-0.055-0.134-0.060-0.225-0.073-1.186-0.007-2.417-0.007-3.608-0-0.843-0.085-1.941 0.025-2.756 0.085-0.106 0.139-0.106 0.267-0.145zM51.135 15.14c-0.477-0.311-1.28-0.221-1.834-0.22l0.003 1.537c0.614 0.004 1.33 0.098 1.874-0.231 0.128-0.189 0.257-0.469 0.22-0.704-0.027-0.171-0.12-0.289-0.262-0.382zM50.907 12.407c-0.455-0.274-1.093-0.205-1.605-0.202v1.476c0.549 0.004 1.204 0.086 1.683-0.224 0.129-0.185 0.254-0.451 0.205-0.684-0.036-0.171-0.137-0.278-0.283-0.366z" />
<path d="M39.72 12.565c0.137-0.011 0.276-0.004 0.411 0.022 0.412 0.083 0.613 0.386 0.833 0.709 0.013-0.113 0.021-0.235 0.048-0.345 0.027-0.115 0.090-0.186 0.194-0.241 0.166-0.089 0.524-0.094 0.698-0.030 0.127 0.047 0.269 0.158 0.312 0.291 0.13 0.394 0.079 4.247 0.004 4.774-0.049 0.347-0.157 0.69-0.332 0.994-0.282 0.491-0.763 0.811-1.303 0.957-0.761 0.206-1.627 0.14-2.306-0.269-0.303-0.182-0.445-0.417-0.525-0.755 0.026-0.122 0.056-0.241 0.161-0.32 0.34-0.257 1.075 0.174 1.453 0.245 0.325 0.060 0.676 0.027 0.946-0.177 0.446-0.336 0.519-0.957 0.595-1.47-0.298 0.319-0.582 0.575-1.022 0.683-0.477 0.117-0.999 0.037-1.409-0.235-0.54-0.358-0.841-0.972-0.951-1.595-0.135-0.759-0.017-1.666 0.443-2.301 0.439-0.605 1.042-0.828 1.751-0.937zM39.801 13.727c-0.355 0.134-0.551 0.298-0.703 0.652-0.187 0.435-0.193 1.065-0.010 1.501 0.097 0.23 0.291 0.472 0.535 0.555 0.161 0.054 0.356 0.031 0.522 0.019 0.292-0.104 0.459-0.228 0.597-0.511 0.213-0.436 0.22-1.051 0.057-1.506-0.094-0.265-0.281-0.525-0.546-0.639-0.136-0.058-0.306-0.078-0.452-0.070z" />
<path d="M69.203 12.606c0.349-0.046 0.692-0.031 1.021 0.106 0.455 0.188 0.691 0.531 0.871 0.969 0.092-0.231 0.194-0.464 0.357-0.656 0.258-0.304 0.596-0.425 0.988-0.44 0.451-0.017 0.913 0.086 1.244 0.41 0.217 0.213 0.351 0.498 0.424 0.791 0.194 0.778 0.085 2.451 0.088 3.331 0 0.135 0.017 0.56-0.088 0.64-0.179 0.135-0.814 0.105-1.037 0.074-0.13-0.018-0.211-0.088-0.265-0.207-0.083-0.182-0.038-0.507-0.036-0.708 0.009-0.653 0.169-2.456-0.217-2.932-0.089-0.109-0.214-0.178-0.356-0.188-0.208-0.015-0.472 0.057-0.624 0.205-0.535 0.524-0.358 2.389-0.353 3.122 0.001 0.148 0.007 0.31-0.012 0.457-0.008 0.065-0.031 0.14-0.090 0.174-0.228 0.131-0.783 0.111-1.035 0.052-0.131-0.031-0.187-0.075-0.234-0.202-0.078-0.211-0.034-0.523-0.030-0.746 0.012-0.654 0.167-2.28-0.166-2.77-0.1-0.147-0.249-0.237-0.423-0.265-0.199-0.032-0.406-0.006-0.568 0.122-0.651 0.514-0.473 2.314-0.47 3.058 0.001 0.179 0.037 0.435-0.004 0.602-0.017 0.070-0.037 0.112-0.097 0.152-0.209 0.137-0.776 0.108-1.027 0.058-0.105-0.021-0.172-0.085-0.218-0.181-0.064-0.136-0.083-4.047-0.059-4.435 0.007-0.108 0.029-0.223 0.078-0.32 0.064-0.125 0.17-0.206 0.301-0.248 0.31-0.1 0.696 0.011 0.97 0.163 0.066 0.244 0.019 0.564 0.008 0.819 0.032-0.065 0.065-0.13 0.098-0.194 0.242-0.467 0.469-0.657 0.962-0.814z" />
<path d="M63.575 12.627c1.441-0.030 2.637 1.105 2.685 2.545s-1.072 2.651-2.511 2.716c-0.947 0.043-1.845-0.427-2.349-1.229s-0.537-1.816-0.087-2.65c0.45-0.835 1.314-1.362 2.262-1.382zM63.397 13.772c-0.387 0.172-0.598 0.369-0.747 0.773-0.179 0.484-0.15 1.159 0.080 1.621 0.124 0.248 0.315 0.451 0.583 0.54 0.183 0.061 0.355 0.071 0.543 0.027 0.371-0.155 0.592-0.353 0.745-0.733 0.191-0.477 0.189-1.114-0.030-1.582-0.137-0.292-0.381-0.532-0.694-0.625-0.153-0.045-0.32-0.035-0.477-0.021z" />
<path d="M34.405 12.634c1.45-0.065 2.679 1.056 2.746 2.505s-1.052 2.681-2.502 2.751c-1.453 0.070-2.686-1.052-2.754-2.505s1.057-2.685 2.51-2.751zM34.813 13.806c-0.168-0.057-0.341-0.056-0.515-0.034-0.388 0.192-0.61 0.392-0.759 0.816-0.168 0.481-0.143 1.167 0.099 1.618 0.132 0.246 0.332 0.426 0.602 0.509 0.165 0.050 0.352 0.056 0.52 0.016 0.37-0.154 0.587-0.353 0.736-0.733 0.189-0.482 0.174-1.117-0.044-1.588-0.128-0.276-0.347-0.504-0.639-0.604z" />
<path d="M57.678 12.663c0.934-0.151 1.877 0.212 2.47 0.949s0.743 1.736 0.394 2.615c-0.349 0.879-1.143 1.504-2.080 1.635-1.427 0.199-2.748-0.787-2.963-2.212s0.757-2.757 2.179-2.987zM57.892 13.769c-0.39 0.166-0.614 0.354-0.772 0.758-0.185 0.473-0.166 1.128 0.052 1.588 0.132 0.277 0.357 0.506 0.654 0.601 0.149 0.048 0.317 0.047 0.471 0.028 0.389-0.164 0.615-0.348 0.776-0.752 0.187-0.469 0.184-1.117-0.034-1.576-0.129-0.272-0.349-0.502-0.637-0.604-0.163-0.058-0.339-0.057-0.51-0.043z" />
<path d="M44.536 12.609c0.329-0.039 0.646-0.033 0.971 0.043 0.492 0.114 0.905 0.4 1.156 0.842 0.134 0.236 0.212 0.496 0.249 0.765 0.057 0.415 0.090 3.039-0.004 3.4-0.079 0.101-0.159 0.138-0.282 0.164-0.21 0.045-0.672 0.072-0.842-0.086-0.149-0.137-0.118-0.424-0.12-0.609-0.247 0.365-0.495 0.659-0.944 0.771-0.501 0.125-0.966-0.022-1.398-0.271-0.184-0.169-0.324-0.343-0.403-0.583-0.133-0.406-0.090-0.953 0.117-1.326 0.504-0.906 1.69-0.852 2.558-1.108l0.054-0.016c-0.035-0.108-0.069-0.219-0.114-0.324-0.491-1.132-1.715 0.105-2.307-0.207-0.12-0.063-0.206-0.19-0.236-0.319-0.041-0.172 0.006-0.283 0.1-0.426 0.318-0.485 0.914-0.607 1.444-0.708zM45.591 15.634c-0.361 0.099-1.038 0.208-1.253 0.536-0.070 0.107-0.076 0.247-0.030 0.365 0.032 0.083 0.095 0.156 0.15 0.224 0.373 0.025 0.607-0.002 0.892-0.261 0.173-0.158 0.331-0.411 0.323-0.655-0.002-0.061-0.019-0.122-0.033-0.181l-0.049-0.028z" />
<path d="M29.821 13.583c0.129-0.411 1.135-2.375 1.455-2.559 0.166-0.096 1.055-0.11 1.233-0.029 0.114 0.052 0.127 0.083 0.179 0.19-0.091 0.509-1.215 2.215-1.547 2.772l-0.584 0.971c0.002 0.584 0.105 2.365-0.099 2.788-0.071 0.055-0.122 0.085-0.211 0.106-0.274 0.064-0.82 0.045-1.061-0.107-0.187-0.246-0.089-2.291-0.089-2.744-0.299-0.477-2.225-3.553-2.174-3.847 0.064-0.092 0.105-0.114 0.208-0.155 0.325-0.010 0.986-0.096 1.255 0.067 0.349 0.212 1.307 2.115 1.436 2.547z" />
<path d="M53.677 10.968c0.341-0.009 0.898-0.094 1.193 0.082 0.083 0.561 0.050 1.156 0.052 1.722l0.003 2.622c0 0.685 0.075 1.509-0.013 2.181-0.017 0.134-0.1 0.177-0.197 0.254-0.355 0.012-0.901 0.1-1.193-0.131-0.069-0.262-0.112-6.316-0.046-6.555 0.032-0.113 0.106-0.126 0.202-0.175z" />
<path d="M13.27 20.431c0.47 0.167 0.943 0.301 1.436 0.381 0.85 0.138 1.837 0.097 2.6 0.54 0.564 0.327 1.141 1.092 1.3 1.727 0.029 0.116 0.021 0.126-0.039 0.223-0.59 0.213-1.163 0.162-1.75-0.030-1.414-0.462-2.856-1.493-3.548-2.841z" />
<path d="M13.004 20.434c0.030-0.003 0.058 0.013 0.087 0.021-0.002 0.013-0.001 0.027-0.004 0.041-0.073 0.301-1.237 1.528-1.506 1.741-0.929 0.733-2.308 1.316-3.507 1.173-0.032-0.007-0.077-0.016-0.106-0.029-0.065-0.030-0.105-0.054-0.122-0.123-0.045-0.187 0.061-0.405 0.146-0.568 0.275-0.525 0.704-1.141 1.243-1.424 0.664-0.349 1.644-0.348 2.382-0.479 0.473-0.084 0.928-0.212 1.386-0.352z" />
</symbol>
<symbol id="icon-menu" viewBox="0 0 43 32">
<path d="M0 0h42.667v5.333h-42.667v-5.333zM0 13.333h42.667v5.333h-42.667v-5.333zM0 26.667h42.667v5.333h-42.667v-5.333z" />
</symbol>
<symbol id="icon-twiter-x" viewBox="0 0 32 32">
<path d="M22.901 5.657h3.68l-8.040 9.037 9.459 12.297h-7.406l-5.801-7.458-6.637 7.458h-3.682l8.6-9.666-9.074-11.668h7.594l5.243 6.817 6.064-6.817zM21.61 24.824h2.039l-13.163-17.115h-2.188l13.312 17.115z" />
</symbol>
<symbol id="icon-youtube" viewBox="0 0 45 32">
<path d="M42.865 5.963c-0.243-0.902-0.718-1.724-1.377-2.385s-1.481-1.138-2.382-1.383c-3.341-0.917-16.706-0.932-16.706-0.932s-13.363-0.015-16.706 0.862c-0.9 0.256-1.72 0.74-2.38 1.404s-1.138 1.487-1.388 2.389c-0.881 3.341-0.89 10.27-0.89 10.27s-0.009 6.963 0.866 10.27c0.491 1.828 1.931 3.273 3.761 3.765 3.375 0.917 16.704 0.932 16.704 0.932s13.365 0.015 16.706-0.86c0.901-0.245 1.723-0.72 2.384-1.38s1.139-1.481 1.385-2.381c0.883-3.339 0.89-10.266 0.89-10.266s0.043-6.965-0.868-10.306zM18.125 22.608l0.011-12.8 11.108 6.411-11.119 6.389z" />
</symbol>
</defs>
</svg>